<svg xmlns="http://www.w3.org/2000/svg" width="150" height="180" viewBox="0 0 150 180">
<defs><linearGradient id="case" x1="0" y1="0" x2="1" y2="1"><stop offset="0" stop-color="#536a63"/><stop offset="1" stop-color="#2f403b"/></linearGradient><linearGradient id="tank" x1="0" y1="0" x2="0" y2="1"><stop offset="0" stop-color="#668d87"/><stop offset="1" stop-color="#3f6561"/></linearGradient><radialGradient id="glow"><stop offset="0" stop-color="#e6fffb"/><stop offset=".28" stop-color="#77c7cf"/><stop offset="1" stop-color="#77b6bf" stop-opacity="0"/></radialGradient></defs>
<ellipse cx="75" cy="156" rx="53" ry="10" fill="#080c0f" opacity=".5"/>
<rect x="30" y="36" width="90" height="112" rx="8" fill="#111719" stroke="#090d11" stroke-width="5"/>
<rect x="38" y="44" width="74" height="96" rx="5" fill="url(#case)" stroke="#69736e" stroke-width="3"/>
<!-- twin capacitor cans -->
<rect x="46" y="52" width="23" height="76" rx="8" fill="url(#tank)" stroke="#1a2424" stroke-width="4"/>
<rect x="81" y="52" width="23" height="76" rx="8" fill="url(#tank)" stroke="#1a2424" stroke-width="4"/>
<path d="M57 59 V120 M92 59 V120" stroke="#8ed8d8" stroke-width="4" opacity=".65"/>
<!-- live status -->
<circle cx="75" cy="94" r="31" fill="url(#glow)" opacity=".42"/><circle cx="75" cy="94" r="15" fill="#111719"/><circle cx="75" cy="94" r="10" fill="#77b6bf"/><circle cx="75" cy="94" r="4" fill="#e3fbf7"/>
<!-- top/bottom carrier -->
<rect x="47" y="25" width="56" height="17" rx="4" fill="#111719"/><rect x="53" y="29" width="44" height="9" rx="2" fill="#8e5d45"/>
<path d="M30 136 L18 157 M120 136 L132 157" stroke="#303c38" stroke-width="8" stroke-linecap="round"/>
<path d="M42 128 L62 106 M88 130 L108 108" stroke="#d4aa55" stroke-width="8" stroke-linecap="round"/>
<path d="M66 132 L86 110" stroke="#a45f42" stroke-width="8" stroke-linecap="round"/>
<!-- damaged warning plate -->
<rect x="102" y="67" width="24" height="34" rx="3" fill="#564b3e" stroke="#111719" stroke-width="4" transform="rotate(7 114 84)"/>
</svg>