<svg xmlns="http://www.w3.org/2000/svg" width="150" height="100" viewBox="0 0 150 100">
<ellipse cx="75" cy="84" rx="56" ry="9" fill="#080c0f" opacity=".48"/>
<path d="M27 76 L44 49 L70 59 L92 39 L124 62 L130 82 H24Z" fill="#111719"/>
<path d="M36 72 L48 55 L72 65 L94 46 L116 65 L120 77 H34Z" fill="#3b4642"/>
<path d="M47 56 L60 25" stroke="#151d1e" stroke-width="10"/><path d="M50 55 L62 28" stroke="#60706b" stroke-width="5"/>
<path d="M95 47 L112 22" stroke="#151d1e" stroke-width="10"/><path d="M97 47 L113 25" stroke="#536b65" stroke-width="5"/>
<circle cx="83" cy="60" r="9" fill="#273532"/><circle cx="83" cy="60" r="4" fill="#77b6bf" opacity=".20"/>
<path d="M40 76 L66 59 M91 76 L116 58" stroke="#9a5941" stroke-width="5" opacity=".62"/>
</svg>